<svg width="140" height="28" viewBox="0 0 140 28" xmlns="http://www.w3.org/2000/svg"><title>logo_black</title><g fill="none" fill-rule="evenodd"><path d="M8.242 26.93c-.258.105-1.828.415-3.208.415-3.19 0-4.967-1.673-4.967-5.003 0-3.725 2-7.537 6.882-7.537.844 0 2.38.138 3.12.414l-.31 1.517c-.344-.12-1.328-.43-2.673-.43-3.692 0-5.313 2.69-5.313 5.76 0 2.708 1.328 3.778 3.674 3.778 1.07 0 2.294-.207 2.984-.432l-.19 1.518zm6.02.087c-.415.156-.95.328-1.69.328-1.174 0-1.985-.518-1.985-1.673 0-.138.018-.328.035-.466l1.673-10.643h1.622l-1.64 10.333s-.016.172-.016.24c0 .622.26.812.95.812.413 0 .844-.12 1.19-.242l-.14 1.31zm5.346-1.07c2.07 0 3.467-1.707 3.467-4.156 0-1.81-.93-2.5-2.242-2.5-1.984 0-3.45 1.552-3.502 4.156 0 1.346.467 2.502 2.278 2.502m-3.88-2.363c0-3.122 2.017-5.675 5.157-5.675 2.45 0 3.81 1.328 3.81 3.725 0 3.226-2.017 5.71-5.225 5.71-2.346-.035-3.743-1.277-3.743-3.76M33.44 27.17h-1.327l.293-2.76c-1.12 1.743-2.57 2.933-4.26 2.933-1.467 0-2.174-.983-2.174-2.45 0-.275.017-.55.07-.862l.948-5.95h1.604l-.897 5.657c-.052.276-.07.552-.07.81 0 .777.242 1.364 1.002 1.364 1.24 0 2.93-1.795 4-3.813l.638-4.017h1.622l-1.45 9.09zm9.33-5.053l.398-2.572c-.414-.19-1.225-.31-1.846-.31-2.863 0-3.64 2.57-3.64 4.33 0 1.345.45 2.345 1.26 2.345 1.156 0 2.863-2.052 3.83-3.794m-6.728 1.637c0-2.535 1.294-5.847 5.313-5.847.76 0 1.535.12 2.053.225l.155-1.19.38-2.382h1.62l-2 12.61H42.22l.328-2.76c-.95 1.57-2.38 2.932-3.934 2.932-1.707 0-2.57-1.535-2.57-3.588m13.61 1.45c.17.137 1.93.638 3.69.638 2.053 0 3.45-.81 3.45-2.122 0-2.69-6.244-1.415-6.244-5.21 0-2.363 2.087-3.708 5.21-3.708 1.793 0 3.207.466 3.552.586l-.328 1.52c-.69-.346-2.208-.622-3.415-.622-1.795 0-3.347.708-3.347 1.984 0 2.484 6.26 1.208 6.26 5.244.002 2.536-2.138 3.83-5.33 3.83-2.05 0-3.828-.553-3.828-.553l.328-1.587zm17.143-3.088l.396-2.572c-.413-.19-1.224-.31-1.845-.31-2.863 0-3.64 2.57-3.64 4.33 0 1.345.45 2.345 1.26 2.345 1.155 0 2.863-2.052 3.83-3.794m-6.728 1.637c0-2.535 1.362-5.847 5.38-5.847 1.623 0 2.865.328 3.52.5l-1.38 8.762h-1.345l.328-2.76c-.95 1.57-2.38 2.933-3.933 2.933-1.708 0-2.57-1.535-2.57-3.588m11.418-5.675h1.328l-.293 2.76c1.12-1.742 2.57-2.932 4.26-2.932 1.466 0 2.174.983 2.174 2.45 0 .275-.018.55-.07.862l-.948 5.95h-1.605l.897-5.657c.05-.276.069-.552.069-.81 0-.777-.24-1.363-1-1.363-1.242 0-2.932 1.794-4.002 3.812l-.638 4.018h-1.62l1.448-9.09zm15.765 4.037l.396-2.572c-.414-.19-1.226-.31-1.846-.31-2.864 0-3.64 2.57-3.64 4.33 0 1.345.45 2.345 1.26 2.345 1.155 0 2.863-2.052 3.83-3.794m-6.73 1.637c0-2.535 1.296-5.847 5.314-5.847.76 0 1.535.12 2.053.225l.156-1.19.38-2.382h1.62l-2 12.61H86.7l.328-2.76c-.948 1.57-2.38 2.932-3.932 2.932-1.708 0-2.57-1.535-2.57-3.588m12.21-.62l-.395 2.57c.414.19 1.225.31 1.846.31 2.863 0 3.64-2.57 3.64-4.33 0-1.345-.45-2.345-1.26-2.345-1.155 0-2.863 2.052-3.83 3.794m6.728-1.638c0 2.535-1.363 5.847-5.382 5.847-1.62 0-2.88-.328-3.536-.5l1.95-12.282H94.1l-.76 4.76-.276 1.312c.967-1.483 2.364-2.725 3.83-2.725 1.742 0 2.57 1.535 2.57 3.588m5.105 4.45c2.07 0 3.466-1.708 3.466-4.157 0-1.81-.932-2.5-2.242-2.5-1.984 0-3.45 1.552-3.502 4.156 0 1.346.466 2.502 2.277 2.502m-3.882-2.363c0-3.122 2.02-5.675 5.158-5.675 2.45 0 3.812 1.328 3.812 3.725 0 3.226-2.018 5.71-5.227 5.71-2.345-.035-3.742-1.277-3.742-3.76m15.47 3.587l-1.793-3.31-2.897 3.31h-1.81l3.966-4.553-2.467-4.537h1.83l1.81 3.38 2.932-3.38h1.776l-4.002 4.553 2.5 4.536" fill="#353630"/><path d="M79.534 5.66c0-2.302 1.39-4.284 3.373-5.156H59.44c-.58 0-1.05.473-1.05 1.05v8.197c0 .58.47 1.052 1.05 1.052h23.44c-1.97-.877-3.346-2.85-3.346-5.143" fill="#F39A1E"/><path d="M85.162 2.992c-1.47 0-2.667 1.197-2.667 2.667 0 .913.462 1.72 1.165 2.202.062-.32.16-.63.29-.92-.34-.323-.554-.778-.554-1.282 0-.975.792-1.767 1.766-1.767.567 0 1.072.27 1.396.685.302-.1.618-.166.946-.196-.454-.828-1.333-1.39-2.34-1.39" fill="#F39A1E"/><path d="M86.414 5.66c0-.156-.03-.305-.082-.442-.724.33-1.327.878-1.724 1.562.168.083.355.13.555.13.69 0 1.25-.56 1.25-1.25m1.507 1.613c.753 0 1.37.585 1.424 1.323.577-.818.92-1.81.93-2.883-.565-.453-1.26-.748-2.022-.818.06.245.093.5.093.764 0 .588-.162 1.14-.442 1.614h.017m-.914 1.43c0 .503.41.913.914.913s.915-.41.915-.914-.41-.914-.915-.914-.914.408-.914.913" fill="#F39A1E"/><path d="M86.815 5.037c.074.193.114.403.114.622 0 .973-.794 1.766-1.767 1.766-.282 0-.547-.067-.783-.184-.115.28-.197.573-.243.88.316.132.663.205 1.026.205 1.47 0 2.667-1.197 2.667-2.668 0-.27-.04-.53-.116-.777-.31.015-.612.068-.9.154" fill="#F39A1E"/><path d="M80.05 5.66c0 2.44 1.717 4.484 4.007 4.99-.303-.59-.476-1.26-.476-1.967 0-.087.004-.173.01-.26-.96-.547-1.61-1.58-1.61-2.764 0-1.755 1.428-3.183 3.183-3.183 1.295 0 2.41.778 2.907 1.89.797.032 1.54.28 2.17.687-.302-2.536-2.463-4.508-5.077-4.508-2.82 0-5.114 2.294-5.114 5.113" fill="#F39A1E"/><path d="M86.05 4.78c-.226-.23-.54-.372-.888-.372-.69 0-1.25.56-1.25 1.25 0 .304.108.582.288.8.437-.726 1.082-1.312 1.85-1.678m-.888 5.993c.913 0 1.77-.242 2.513-.663-.67-.117-1.184-.703-1.184-1.407 0-.053.005-.106.01-.157-.407.19-.86.296-1.337.296-.374 0-.733-.066-1.066-.185v.026c0 .763.225 1.472.613 2.068.15.014.3.022.453.022" fill="#F39A1E"/><path d="M62.66 8.78c-.21.09-.52.21-1.012.21-.862 0-1.433-.42-1.433-1.322V2.33h1.213v4.957c0 .56.27.672.58.672.21 0 .422-.062.602-.122l.05.942zm3.687-2.014c-.22-.02-.55-.05-.872-.05-.69 0-1.312.17-1.312.772 0 .57.56.63.862.63.67 0 1.08-.31 1.322-.56v-.792zm.27 2.115l-.11-.65c-.45.52-1.082.76-1.763.76-.972 0-1.784-.47-1.784-1.462 0-1.173 1.113-1.573 2.375-1.573.36 0 .7.04 1.012.08v-.62c0-.602-.45-.893-1.343-.893-.59 0-1.192.13-1.623.31l-.05-1c.31-.122.983-.342 1.965-.342 1.212 0 2.264.37 2.264 1.834V8.88h-.943zm2.835-.962c.27.07.552.1.792.1.982 0 1.664-.48 1.664-1.843 0-1.06-.41-1.673-1.173-1.673-.54 0-.992.32-1.282.63V7.92zm-1.21-5.588h1.21V3.5l-.03.66c.33-.36.862-.67 1.574-.67 1.282 0 2.114.982 2.114 2.675 0 1.924-1.122 2.825-2.836 2.825-.76 0-1.703-.18-2.034-.29V2.33zm5.35 5.405c.07.06.97.3 1.762.3.62 0 1.112-.15 1.112-.57 0-1.042-2.966-.41-2.966-2.385 0-1.01.772-1.563 2.235-1.563.9 0 1.583.21 1.703.28l-.05 1.003c-.3-.15-.962-.28-1.563-.28-.65 0-1.153.15-1.153.54 0 .952 2.977.34 2.977 2.374 0 1.103-.874 1.583-2.226 1.583-.952 0-1.853-.24-1.884-.25l.05-1.032z" fill="#FFF"/><path fill="#F39A1E" d="M49.476 8.877h1.84V2.33h-1.84m4.487 3.28h-.004l.003-.014 1.89-3.265h-1.84l-1.89 3.266.01.015h-.01l1.89 3.266h1.84M33.66 2.33h-1.478l-3.78 6.546h1.862l2.692-4.66v4.66h1.86V2.333h-1M13.5 6.148h2.897l.628-1.073h-2.94"/><path d="M12.908 4.814h.002c0-.827.247-1.138 1.052-1.138h2.62l.78-1.357H13.69c-1.566 0-2.6.548-2.6 2.53v4.04h5.656l.783-1.357H12.91v-2.72zm31.797 1.334h2.898l.627-1.073h-2.94" fill="#F39A1E"/><path d="M44.177 4.814h.002c0-.827.247-1.138 1.052-1.138h2.618l.783-1.357h-3.676c-1.566 0-2.6.548-2.6 2.53v4.04h5.656l.783-1.357h-4.62v-2.72zm-8.548-1.12h2.288v5.183h1.8V3.693h1.695L42.2 2.33h-5.785M21.32 7.537h-1V3.673h1c1.454 0 1.91.256 1.91 1.88s-.456 1.982-1.91 1.982m.39-5.216h-3.155v6.57h3.24c2.276 0 3.3-.88 3.3-3.338 0-2.325-1.014-3.233-3.384-3.233m4.412 6.557h1.84V2.332h-1.84M5.962 5.658V2.33l-2.188.008L0 8.87h1.805l2.317-4.01v3.983l-.015.027h.015v.007h1.84L8.23 4.86v4.017h1.84V2.332l-2.19.006" fill="#F39A1E"/><g fill="#F39A1E"><path d="M122.8 14.99v7.98c0 .097.093.19.2.19h15.24c.114 0 .2-.085.2-.19v-7.98c0-.097-.093-.19-.2-.19H123c-.114 0-.2.085-.2.19zm-.8 0c0-.546.444-.99 1-.99h15.24c.552 0 1 .454 1 .99v7.98c0 .546-.444.99-1 .99H123c-.552 0-1-.454-1-.99v-7.98z" fill-rule="nonzero"/><path d="M127.656 21.872v-.912h-2.648v-4.744H124v5.656h3.656zm1.696 0v-4.216h-.968v4.216h.968zm.08-5.344c0-.304-.16-.528-.56-.528-.416 0-.568.224-.568.528 0 .304.152.528.568.528.4 0 .56-.232.56-.528zm3.4 4.408c-.184.096-.416.16-.632.16-.328 0-.616-.08-.616-.52v-2.144h1.168l.04-.776h-1.208V16.64h-.84l-.112 1.016h-.568v.776h.552v2.24c0 .984.592 1.288 1.256 1.288.352 0 .688-.08.992-.192l-.032-.832zm4.32-.024l-.008.776c-.368.144-1.008.272-1.584.272-1.456 0-2.144-.792-2.144-2.152 0-1.408.704-2.24 1.992-2.24 1.336 0 1.832.808 1.832 1.784 0 .208-.024.448-.064.656H134.4c.048.824.464 1.152 1.288 1.152.632 0 1.256-.184 1.464-.248zm-.872-1.544v-.088c0-.592-.28-.96-.864-.96-.576 0-.952.344-1.008 1.048h1.872z"/></g></g></svg>