<?xml version="1.0" encoding="UTF-8"?>
<svg width="50px" height="45px" viewBox="0 0 50 45" version="1.1" xmlns="http://www.w3.org/2000/svg" xmlns:xlink="http://www.w3.org/1999/xlink">
    <!-- Generator: Sketch 42 (36781) - http://www.bohemiancoding.com/sketch -->
    <title>img_warning</title>
    <desc>Created with Sketch.</desc>
    <defs></defs>
    <g id="Page-1" stroke="none" stroke-width="1" fill="none" fill-rule="evenodd">
        <g id="img_warning" transform="translate(0.000000, -2.000000)">
            <rect id="bounds" opacity="0.1" x="0" y="0" width="50" height="50"></rect>
            <g id="Group" transform="translate(0.000000, 2.000000)">
                <path d="M1.57632629,39.9862073 C0.500359739,41.8497813 1.19218492,43.0503225 3.34548722,43.0503225 L46.6542133,43.0503225 C48.8061876,43.0503225 49.5000047,41.8509312 48.4233742,39.9862073 L26.7690112,2.48085117 C25.6930297,0.617251364 24.3073347,0.61610134 23.2306893,2.48085117 L1.57632629,39.9862073 Z M22.2930333,1.93947931 C23.787967,-0.64974587 26.2154907,-0.643238293 27.7066672,1.93947931 L49.3610302,39.4448354 C50.855964,42.0340606 49.6365662,44.1330423 46.6542133,44.1330423 L3.34548722,44.1330423 C0.355619749,44.1330423 -0.852506228,42.027553 0.638670246,39.4448354 L22.2930333,1.93947931 Z" id="Triangle" fill="#F39A1E" fill-rule="nonzero"></path>
                <path d="M24.231512,5.04871918 C24.6558501,4.31376546 25.3476858,4.32042934 25.7681765,5.04871918 L45.8196214,39.7778211 C46.2439595,40.5127749 45.8922705,41.1085726 45.0512891,41.1085726 L4.9483993,41.1085726 C4.09972294,41.1085726 3.75957638,40.506111 4.18006706,39.7778211 L24.231512,5.04871918 Z" id="Combined-Shape" fill-opacity="0.9" fill="#FDF4E7"></path>
                <path d="M20,38.5 C20,38.2238576 20.2276528,38 20.5096495,38 L29.4903505,38 C29.7718221,38 30,38.2319336 30,38.5 C30,38.7761424 29.7723472,39 29.4903505,39 L20.5096495,39 C20.2281779,39 20,38.7680664 20,38.5 Z" id="Combined-Shape" fill="#F39A1E" opacity="0.5"></path>
                <g transform="translate(23.000000, 18.000000)" id="Combined-Shape" fill="#F39A1E">
                    <path d="M0.0835394412,1.00247329 C0.0374018818,0.448822582 0.443353176,0 1.0093689,0 L2.9906311,0 C3.54809015,0 3.96201992,0.455760956 3.91646056,1.00247329 L3.08353944,10.9975267 C3.03740188,11.5511774 2.55613518,12 2,12 C1.44771525,12 0.96201992,11.544239 0.916460559,10.9975267 L0.0835394412,1.00247329 Z"></path>
                    <path d="M2,16 C1.44771525,16 1,15.5522847 1,15 C1,14.4477153 1.44771525,14 2,14 C2.55228475,14 3,14.4477153 3,15 C3,15.5522847 2.55228475,16 2,16 Z"></path>
                </g>
            </g>
        </g>
    </g>
</svg>