<svg width="50" height="42" viewBox="0 0 50 42" xmlns="http://www.w3.org/2000/svg"><title>img_upload_img</title><g fill="none" fill-rule="evenodd"><path opacity=".1" d="M0-4h50v50H0z"/><path d="M20 41.5c0-.276.228-.5.51-.5h8.98c.282 0 .51.232.51.5 0 .276-.228.5-.51.5h-8.98c-.282 0-.51-.232-.51-.5z" fill="#D1D2D3" opacity=".5"/><path d="M.515 9.688c-.284-1.062.352-2.156 1.41-2.44L27.054.516c1.06-.284 2.155.353 2.438 1.408l4.146 15.473c.283 1.062-.353 2.155-1.41 2.438L7.1 26.568c-1.062.284-2.156-.353-2.44-1.408L.516 9.688z" fill="#FFF"/><path d="M1.48 9.43L5.628 24.9c.14.526.688.843 1.214.702l25.132-6.734c.525-.14.842-.688.7-1.214L28.528 2.182c-.14-.525-.688-.842-1.214-.7L2.183 8.214c-.526.14-.843.688-.702 1.214zm-.965.258c-.284-1.062.352-2.156 1.41-2.44L27.054.516c1.06-.284 2.155.353 2.438 1.408l4.146 15.473c.283 1.062-.353 2.155-1.41 2.438L7.1 26.568c-1.062.284-2.156-.353-2.44-1.408L.516 9.688z" fill="#D1D2D3" fill-rule="nonzero"/><path d="M3.803 10.367c-.07-.266.086-.54.355-.61l22.214-5.953c.268-.072.54.083.613.352l3.366 12.56c.072.266-.085.54-.354.61L7.782 23.28c-.268.07-.54-.084-.613-.352l-3.367-12.56z" fill="#EAEAEA"/><g><path d="M20.16 11.923c.286-1.062 1.384-1.69 2.44-1.408l25.13 6.734c1.063.284 1.692 1.382 1.41 2.438L44.992 35.16c-.285 1.062-1.382 1.69-2.44 1.408l-25.13-6.734c-1.062-.285-1.69-1.383-1.408-2.438l4.146-15.473z" fill="#FFF"/><path d="M21.127 12.182L16.98 27.654c-.14.525.176 1.073.703 1.214l25.13 6.734c.525.14 1.073-.175 1.214-.7l4.146-15.473c.14-.526-.175-1.074-.7-1.215L22.34 11.48c-.524-.14-1.072.176-1.213.702zm-.966-.26c.286-1.06 1.384-1.69 2.44-1.407l25.13 6.734c1.063.284 1.692 1.382 1.41 2.438L44.992 35.16c-.285 1.062-1.382 1.69-2.44 1.408l-25.13-6.734c-1.062-.285-1.69-1.383-1.408-2.438l4.146-15.473z" fill="#D1D2D3" fill-rule="nonzero"/><path d="M22.67 14.156c.07-.266.342-.424.612-.352l22.214 5.952c.267.072.427.342.355.61L42.486 32.93c-.07.265-.343.423-.613.35l-22.214-5.95c-.267-.073-.427-.343-.355-.612l3.366-12.56z" fill="#EAEAEA"/><path d="M27.782 20.186c-.8-.214-1.275-1.037-1.06-1.837.214-.8 1.036-1.276 1.837-1.062.8.215 1.274 1.037 1.06 1.838-.215.8-1.038 1.275-1.838 1.06zm1.582 5.764c.236.5.815.66 1.267.377l5.167-3.242c.464-.29 1.042-.137 1.302.362l4.087 7.85c.255.49.038.773-.506.628L21.368 26.75c-.534-.144-.593-.516-.14-.824l5.314-3.63c.458-.312 1.018-.162 1.256.34l1.568 3.314z" fill="#D1D2D3"/></g></g></svg>